<?xml version="1.0" encoding="utf-8"?>
<!-- Generator: Adobe Illustrator 26.5.0, SVG Export Plug-In . SVG Version: 6.00 Build 0)  -->
<svg version="1.1"
	 id="svg906" xmlns:inkscape="http://www.inkscape.org/namespaces/inkscape" xmlns:svg="http://www.w3.org/2000/svg" xmlns:sodipodi="http://sodipodi.sourceforge.net/DTD/sodipodi-0.dtd" inkscape:version="1.1.1 (3bf5ae0d25, 2021-09-20)"
	 xmlns="http://www.w3.org/2000/svg" xmlns:xlink="http://www.w3.org/1999/xlink" x="0px" y="0px" viewBox="0 0 550.5 167.6"
	 style="enable-background:new 0 0 550.5 167.6;" xml:space="preserve">
<style type="text/css">
	.st0{fill:#D7D9DE;}
	.st1{fill:#FF4500;}
	.st2{display:none;}
	.st3{display:inline;fill:none;stroke:#D8D8D8;stroke-width:0.4925;stroke-miterlimit:10;}
	.st4{display:inline;fill:none;stroke:#D8D8D8;stroke-width:0.5589;stroke-miterlimit:10;}
	.st5{display:inline;}
	.st6{fill:#FFFFFF;}
	.st7{fill:#231F20;}
	.st8{fill-rule:evenodd;clip-rule:evenodd;fill:#D7D9DE;}
	.st9{fill-rule:evenodd;clip-rule:evenodd;fill:#FFFFFF;}
</style>
<sodipodi:namedview  bordercolor="#666666" borderopacity="1.0" fit-margin-bottom="0" fit-margin-left="0" fit-margin-right="0" fit-margin-top="0" id="namedview908" inkscape:current-layer="svg906" inkscape:cx="243.26544" inkscape:cy="83.782448" inkscape:pagecheckerboard="0" inkscape:pageopacity="0.0" inkscape:pageshadow="2" inkscape:window-height="1001" inkscape:window-maximized="1" inkscape:window-width="1920" inkscape:window-x="-9" inkscape:window-y="-9" inkscape:zoom="1.8559973" pagecolor="#ffffff" showgrid="false">
	</sodipodi:namedview>
<path id="path872" class="st0" d="M288,102.9c5.2,0,8.2-3.9,8-7.7c-0.1-2-0.3-3.3-0.5-4.3c-3.2-13.8-14.4-24-27.7-24
	c-15.8,0-28.6,14.3-28.6,31.9s12.8,31.9,28.6,31.9c9.9,0,17-3.6,22.1-9.3c2.5-2.8,2-7.1-1-9.2c-2.5-1.7-5.6-1.1-7.9,0.8
	c-2.2,1.9-6.4,5.7-13.2,5.7c-8,0-14.8-6.9-16.3-16H288V102.9z M267.7,79c7.2,0,13.4,5.6,15.7,13.3H252C254.3,84.5,260.5,79,267.7,79
	z"/>
<path id="path874" class="st0" d="M239.8,73.2c0-3-2.2-5.4-5-5.9c-8.7-1.3-16.9,1.9-21.6,7.8v-0.8c0-3.7-3-6-6-6c-3.3,0-6,2.7-6,6
	v49c0,3.2,2.4,6,5.6,6.2c3.5,0.2,6.4-2.5,6.4-6V98.2c0-11.2,8.4-20.4,20-19.1c0.4,0,0.8,0,1.2,0C237.4,78.9,239.8,76.3,239.8,73.2
	L239.8,73.2z"/>
<path id="path878" class="st0" d="M356.2,72.4c0-3.3-2.7-6-6-6l0,0c-3.3,0-6,2.7-6,6v0.7C340.1,69,335,67,328.9,67
	c-15.8,0-28.6,14.3-28.6,31.9s12.8,31.9,28.6,31.9c6.1,0,11.3-2.1,15.4-6.2c0.5,2.8,3,4.9,5.9,4.9c3.3,0,6-2.7,6-6L356.2,72.4
	L356.2,72.4z M329,118.9c-9.2,0-16.6-8.9-16.6-20c0-11,7.4-20,16.6-20s16.6,8.9,16.6,20S338.1,118.9,329,118.9z"/>
<path id="path880" class="st0" d="M418.8,46.4c0-3.3-2.7-6-6-6l0,0c-3.3,0-6,2.7-6,6v26.7c-4.1-4.1-9.2-6.1-15.3-6.1
	c-15.8,0-28.6,14.3-28.6,31.9s12.8,31.9,28.6,31.9c6.1,0,11.3-2.1,15.4-6.2c0.5,2.8,3,4.9,5.9,4.9c3.3,0,6-2.7,6-6V46.4z
	 M391.5,118.9c-9.2,0-16.6-8.9-16.6-20c0-11,7.4-20,16.6-20s16.6,8.9,16.6,20S400.7,118.9,391.5,118.9z"/>
<g id="g890">
	<circle id="circle886" class="st1" cx="83.8" cy="83.8" r="83.8"/>
</g>
<g id="Spacing_Guides" transform="translate(-56,-56)" class="st2">
	<rect id="rect895" y="0" class="st3" width="598.6" height="55.9"/>
	<rect id="rect897" y="223.6" class="st3" width="598.6" height="55.9"/>
	<rect id="rect899" y="0" class="st4" width="55.9" height="279.6"/>
	<rect id="rect901" x="542.7" y="0" class="st4" width="55.9" height="279.6"/>
	<g id="reddit_round" class="st5">
	</g>
	<g id="icon_2" class="st5">
	</g>
</g>
<circle id="circle870_00000046340346777287734130000000571146865052117417_" class="st1" cx="502" cy="57.8" r="10.6"/>
<path id="path876_00000016798175972941755030000011636208823862708358_" class="st0" d="M508,79.7c0-3.3-2.7-6-6-6s-6,2.7-6,6
	c0,0.2,0,42,0,43.9c0,3.3,2.7,6,6,6s6-2.7,6-6C508,121.8,508,79.9,508,79.7z"/>
<path id="path880_00000047779182259905440050000016886854450922975159_" class="st0" d="M481.4,46.5c0-3.3-2.7-6-6-6l0,0
	c-3.3,0-6,2.7-6,6v26.7c-4.1-4.1-9.2-6.1-15.3-6.1c-15.8,0-28.6,14.3-28.6,31.9s12.8,31.9,28.6,31.9c6.1,0,11.3-2.1,15.4-6.2
	c0.5,2.8,3,4.9,5.9,4.9c3.3,0,6-2.7,6-6V46.5z M454.1,118.9c-9.2,0-16.6-8.9-16.6-20c0-11,7.4-20,16.6-20s16.6,8.9,16.6,20
	S463.3,118.9,454.1,118.9z"/>
<path id="path882_00000137852752525718685130000002749729894137195664_" class="st0" d="M538.4,123.7V79.1h5.3c2.8,0,5.3-2.1,5.5-5
	c0.2-3.1-2.3-5.7-5.3-5.7h-5.5V60c0-3.2-2.4-6-5.6-6.2c-3.5-0.2-6.4,2.5-6.4,6v8.7h-5c-2.8,0-5.3,2.1-5.5,5
	c-0.2,3.1,2.3,5.7,5.3,5.7h5.1v44.6c0,3.3,2.7,6,6,6l0,0C535.8,129.5,538.4,126.9,538.4,123.7L538.4,123.7z"/>
<path id="path888_00000121266577551764214900000002049308269986658997_" class="st6" d="M129.4,63.9c0-5.6-4.6-10.1-10.1-10.1
	c-2.7,0-5.2,1.1-7,2.8c-7-5-16.5-8.2-27.1-8.6l4.6-21.7l15.1,3.2c0.2,3.8,3.3,6.9,7.2,6.9c4,0,7.2-3.2,7.2-7.2c0-4-3.2-7.2-7.2-7.2
	c-2.8,0-5.3,1.7-6.5,4.1l-16.8-3.6c-0.5-0.1-1,0-1.3,0.2c-0.4,0.2-0.7,0.7-0.7,1.2l-5.1,24.2c-10.8,0.3-20.5,3.6-27.5,8.6
	c-1.8-1.7-4.3-2.8-7-2.8C41.4,53.9,37,58.5,37,64c0,4.1,2.5,7.6,6,9.2c-0.2,1-0.2,2-0.2,3.1c0,15.6,18.1,28.3,40.5,28.3
	s40.5-12.6,40.5-28.3c0-1-0.1-2.1-0.2-3.1C126.9,71.6,129.4,68.1,129.4,63.9L129.4,63.9z M60,71.1c0-4,3.2-7.2,7.2-7.2
	s7.2,3.2,7.2,7.2s-3.2,7.2-7.2,7.2C63.2,78.4,60,75.1,60,71.1z M100.3,90.3c-5,5-14.4,5.3-17.2,5.3c-2.8,0-12.3-0.4-17.2-5.3
	c-0.7-0.7-0.7-1.9,0-2.7s1.9-0.7,2.7,0c3.1,3.1,9.8,4.2,14.5,4.2c4.7,0,11.4-1.1,14.5-4.2c0.7-0.7,1.9-0.7,2.7,0
	C101,88.4,101,89.5,100.3,90.3z M99,78.4c-4,0-7.2-3.2-7.2-7.2S95,64,99,64s7.2,3.2,7.2,7.2C106.2,75.1,103,78.4,99,78.4z"/>
<path class="st7" d="M39.1,76.8l44.6,10.8l0,0c1,0.2,1.6,1.1,1.6,2.1v57.2c0,1.2-0.9,2.1-2.1,2.1c-0.2,0-0.5,0-0.7-0.1l-44.6-10.8
	l0,0c-1-0.2-1.6-1.1-1.6-2.1v-11.5c0-1.1,0.9-2,2-2.1c1.8-0.3,3.4-1.4,4.5-3c1.3-1.7,2-4,2-6.6c0-2.6-0.8-4.9-2-6.6
	c-1.2-1.7-2.9-2.8-4.7-3l0.3-2.1l-0.3,2.1c-1.1-0.1-1.8-1.1-1.8-2.1V78.8c0-1.2,0.9-2.1,2.1-2.1C38.6,76.7,38.9,76.7,39.1,76.8
	L39.1,76.8z M81,91.3l-40.5-9.8v18c2.3,0.7,4.2,2.2,5.7,4.3c1.8,2.4,2.9,5.6,2.9,9.1c0,3.5-1.1,6.7-2.9,9.1c-1.5,2-3.4,3.5-5.7,4.3
	v8.2l40.5,9.8V91.3z"/>
<path class="st6" d="M37.4,98.9c3.3,0,6.3,1.6,8.4,4.2c2,2.5,3.3,5.9,3.3,9.7c0,3.7-1.3,7.2-3.3,9.7c-2.1,2.6-5.1,4.2-8.4,4.2
	c-3.3,0-6.3-1.6-8.4-4.2c-2-2.5-3.3-5.9-3.3-9.7c0-3.7,1.3-7.2,3.3-9.7C31,100.6,34,98.9,37.4,98.9L37.4,98.9z M42.5,105.8
	c-1.3-1.6-3.2-2.7-5.2-2.7c-2,0-3.8,1-5.2,2.7c-1.4,1.8-2.3,4.2-2.3,7c0,2.7,0.9,5.2,2.3,7c1.3,1.6,3.2,2.7,5.2,2.7
	c2,0,3.8-1,5.2-2.7c1.4-1.8,2.3-4.2,2.3-7C44.9,110.1,44,107.6,42.5,105.8z"/>
<path class="st7" d="M125.8,81.5l-40.5,9.8v52.9l40.5-9.8v-8.2c-2.3-0.7-4.2-2.2-5.7-4.3c-1.8-2.4-2.9-5.6-2.9-9.1
	c0-3.5,1.1-6.7,2.9-9.1c1.5-2,3.4-3.5,5.7-4.3V81.5L125.8,81.5z M82.7,87.6l44.6-10.8c0.2-0.1,0.4-0.1,0.7-0.1
	c1.2,0,2.1,0.9,2.1,2.1v22.3c0,1.1-0.8,2-1.8,2.1l-0.3-2.1l0.3,2.1c-1.8,0.2-3.5,1.4-4.7,3c-1.3,1.7-2,4-2,6.6c0,2.6,0.8,4.9,2,6.6
	c1.2,1.6,2.8,2.7,4.5,3c1.1,0.1,2,1,2,2.1V136c0,1-0.6,1.9-1.6,2.1l0,0l-44.6,10.8c-0.2,0.1-0.4,0.1-0.7,0.1c-1.2,0-2.1-0.9-2.1-2.1
	V89.7C81,88.7,81.7,87.8,82.7,87.6L82.7,87.6z"/>
<path class="st6" d="M129,103.2c-2,0-3.8,1-5.2,2.7c-1.4,1.8-2.3,4.2-2.3,7c0,2.7,0.9,5.2,2.3,7c1.3,1.6,3.2,2.7,5.2,2.7
	c2,0,3.8-1,5.2-2.7c1.4-1.8,2.3-4.2,2.3-7c0-2.7-0.9-5.2-2.3-7C132.8,104.2,131,103.2,129,103.2L129,103.2z M120.5,103.2
	c2.1-2.6,5.1-4.2,8.4-4.2c3.3,0,6.3,1.6,8.4,4.2c2,2.5,3.3,5.9,3.3,9.7c0,3.7-1.3,7.2-3.3,9.7c-2.1,2.6-5.1,4.2-8.4,4.2
	c-3.3,0-6.3-1.6-8.4-4.2c-2-2.5-3.3-5.9-3.3-9.7C117.2,109.1,118.5,105.7,120.5,103.2z"/>
<path class="st8" d="M115.1,84.1l-29.8,7.2v52.9l40.5-9.8v-8.2c-2-0.7-3.8-2-5.3-3.7c-2-2.5-3.3-5.9-3.3-9.7c0-3.7,1.3-7.2,3.3-9.7
	c1.4-1.7,3.2-3,5.3-3.7v-18L115.3,84C115.2,84,115.2,84.1,115.1,84.1L115.1,84.1z"/>
<path class="st8" d="M81,144.2V91.3l-29.7-7.2c-0.1,0-0.2,0-0.3-0.1l-10.5-2.5v18c2,0.7,3.8,2,5.3,3.7c2,2.5,3.3,5.9,3.3,9.7
	c0,3.7-1.3,7.2-3.3,9.7c-1.4,1.7-3.2,3-5.3,3.7v8.2L81,144.2z"/>
<path class="st9" d="M44.9,112.8c0-2.7-0.9-5.2-2.3-7c-1.2-1.4-2.7-2.4-4.4-2.6c0,0,0,0,0,0c-0.2,0-0.5,0-0.8,0c-2,0-3.8,1-5.2,2.7
	c-1.4,1.8-2.3,4.2-2.3,7c0,2.7,0.9,5.2,2.3,7c1.3,1.6,3.2,2.7,5.2,2.7c0.3,0,0.5,0,0.8,0c0,0,0,0,0,0c1.7-0.2,3.2-1.2,4.4-2.6
	C44,118,44.9,115.6,44.9,112.8z"/>
<path class="st9" d="M121.5,112.8c0,2.7,0.9,5.2,2.3,7c1.2,1.4,2.7,2.4,4.4,2.6c0,0,0,0,0,0c0.2,0,0.5,0,0.8,0c2,0,3.8-1,5.2-2.7
	c1.4-1.8,2.3-4.2,2.3-7c0-2.7-0.9-5.2-2.3-7c-1.3-1.6-3.2-2.7-5.2-2.7c-0.3,0-0.5,0-0.8,0c0,0,0,0,0,0c-1.7,0.2-3.2,1.2-4.4,2.6
	C122.4,107.6,121.5,110.1,121.5,112.8z"/>
</svg>
